{"glyphs":{"0":{"ha":1180,"x_min":0,"x_max":0,"o":""},"1":{"ha":637,"x_min":0,"x_max":0,"o":""},"2":{"ha":1180,"x_min":0,"x_max":0,"o":""},"3":{"ha":1180,"x_min":0,"x_max":0,"o":""},"4":{"ha":1180,"x_min":0,"x_max":0,"o":""},"5":{"ha":1180,"x_min":0,"x_max":0,"o":""},"6":{"ha":1180,"x_min":0,"x_max":0,"o":""},"7":{"ha":1180,"x_min":0,"x_max":0,"o":""},"8":{"ha":1180,"x_min":0,"x_max":0,"o":""},"9":{"ha":1180,"x_min":0,"x_max":0,"o":""}," ":{"ha":345,"x_min":0,"x_max":0,"o":""}," ":{"ha":345,"x_min":0,"x_max":0,"o":""},"!":{"ha":456,"x_min":0,"x_max":0,"o":""},"\"":{"ha":456,"x_min":0,"x_max":0,"o":""},"#":{"ha":906,"x_min":0,"x_max":0,"o":""},"$":{"ha":688,"x_min":0,"x_max":0,"o":""},"%":{"ha":1092,"x_min":0,"x_max":0,"o":""},"&":{"ha":1141,"x_min":0,"x_max":0,"o":""},"'":{"ha":235,"x_min":0,"x_max":0,"o":""},"(":{"ha":514,"x_min":0,"x_max":0,"o":""},")":{"ha":514,"x_min":0,"x_max":0,"o":""},"*":{"ha":694,"x_min":0,"x_max":0,"o":""},"+":{"ha":688,"x_min":0,"x_max":0,"o":""},",":{"ha":378,"x_min":0,"x_max":0,"o":""},"-":{"ha":454,"x_min":0,"x_max":0,"o":""},"­":{"ha":454,"x_min":0,"x_max":0,"o":""},".":{"ha":378,"x_min":0,"x_max":0,"o":""},"/":{"ha":386,"x_min":0,"x_max":0,"o":""},":":{"ha":378,"x_min":0,"x_max":0,"o":""},";":{"ha":378,"x_min":0,"x_max":0,"o":""},";":{"ha":378,"x_min":0,"x_max":0,"o":""},"<":{"ha":688,"x_min":0,"x_max":0,"o":""},"=":{"ha":688,"x_min":0,"x_max":0,"o":""},">":{"ha":688,"x_min":0,"x_max":0,"o":""},"?":{"ha":507,"x_min":0,"x_max":0,"o":""},"@":{"ha":1351,"x_min":0,"x_max":0,"o":""},"A":{"ha":1407,"x_min":0,"x_max":0,"o":""},"B":{"ha":1407,"x_min":0,"x_max":0,"o":""},"C":{"ha":1407,"x_min":0,"x_max":0,"o":""},"D":{"ha":1407,"x_min":0,"x_max":0,"o":""},"E":{"ha":1407,"x_min":0,"x_max":0,"o":""},"F":{"ha":1407,"x_min":0,"x_max":0,"o":""},"G":{"ha":1407,"x_min":0,"x_max":0,"o":""},"H":{"ha":1407,"x_min":0,"x_max":0,"o":""},"I":{"ha":515,"x_min":0,"x_max":0,"o":""},"J":{"ha":1407,"x_min":0,"x_max":0,"o":""},"K":{"ha":1407,"x_min":0,"x_max":0,"o":""},"L":{"ha":1407,"x_min":0,"x_max":0,"o":""},"M":{"ha":1407,"x_min":0,"x_max":0,"o":""},"N":{"ha":1407,"x_min":0,"x_max":0,"o":""},"O":{"ha":1407,"x_min":0,"x_max":0,"o":""},"P":{"ha":1407,"x_min":0,"x_max":0,"o":""},"Q":{"ha":1407,"x_min":0,"x_max":0,"o":""},"R":{"ha":1407,"x_min":0,"x_max":0,"o":""},"S":{"ha":1407,"x_min":0,"x_max":0,"o":""},"T":{"ha":1407,"x_min":0,"x_max":0,"o":""},"U":{"ha":1407,"x_min":0,"x_max":0,"o":""},"V":{"ha":1407,"x_min":0,"x_max":0,"o":""},"W":{"ha":1407,"x_min":0,"x_max":0,"o":""},"X":{"ha":1407,"x_min":0,"x_max":0,"o":""},"Y":{"ha":1407,"x_min":0,"x_max":0,"o":""},"Z":{"ha":1407,"x_min":0,"x_max":0,"o":""},"[":{"ha":514,"x_min":0,"x_max":0,"o":""},"\\":{"ha":386,"x_min":0,"x_max":0,"o":""},"]":{"ha":514,"x_min":0,"x_max":0,"o":""},"^":{"ha":688,"x_min":0,"x_max":0,"o":""},"_":{"ha":694,"x_min":0,"x_max":0,"o":""},"`":{"ha":694,"x_min":0,"x_max":0,"o":""},"a":{"ha":1180,"x_min":0,"x_max":1112,"o":"m 246 972 l 865 972 q 1112 696 1076 972 l 1105 692 l 7 692 l 0 696 q 246 972 36 972 m 7 625 l 1105 625 q 1112 617 1112 623 l 1112 7 q 1105 0 1112 0 l 772 0 q 765 7 765 0 l 765 344 l 347 344 l 347 7 q 340 0 347 0 l 7 0 q 0 7 0 0 l 0 617 q 7 625 1 625 z "},"b":{"ha":1180,"x_min":0,"x_max":1112,"o":"m 7 972 l 866 972 q 1094 793 1030 972 q 1112 659 1112 730 q 1082 482 1112 579 q 1112 314 1112 403 q 922 4 1112 66 q 866 0 884 0 l 7 0 q 0 7 0 0 l 0 273 q 7 281 1 281 l 765 281 l 765 348 l 7 348 q 0 355 0 348 l 0 617 q 7 625 1 625 l 765 625 l 765 692 l 7 692 q 0 699 0 692 l 0 965 q 7 972 1 972 z "},"c":{"ha":1180,"x_min":0,"x_max":1112,"o":"m 246 972 l 340 972 q 347 965 347 971 l 347 7 q 340 0 347 0 l 246 0 q 19 180 82 0 q 0 314 0 242 l 0 659 q 191 968 0 906 q 246 972 228 972 m 422 972 l 1105 972 q 1112 965 1112 971 l 1112 699 q 1105 692 1112 692 l 422 692 q 414 699 414 692 l 414 965 q 422 972 415 972 m 422 281 l 1105 281 q 1112 273 1112 279 l 1112 7 q 1105 0 1112 0 l 422 0 q 414 7 414 0 l 414 273 q 422 281 415 281 z "},"d":{"ha":1180,"x_min":0,"x_max":1112,"o":"m 7 972 l 351 972 q 358 965 358 971 l 358 7 q 351 0 358 0 l 7 0 q 0 7 0 0 l 0 965 q 7 972 1 972 m 433 972 l 866 972 q 1093 793 1030 972 q 1112 659 1112 730 l 1112 314 q 922 4 1112 66 q 866 0 884 0 l 433 0 q 425 7 425 0 l 425 273 q 433 281 427 281 l 765 281 l 765 692 l 433 692 q 425 699 425 692 l 425 965 q 433 972 427 972 z "},"e":{"ha":1180,"x_min":0,"x_max":1112,"o":"m 7 972 l 1105 972 q 1112 965 1112 971 l 1112 699 q 1105 692 1112 692 l 7 692 q 0 699 0 692 l 0 965 q 7 972 1 972 m 7 625 l 1105 625 q 1112 617 1112 623 l 1112 355 q 1105 348 1112 348 l 7 348 q 0 355 0 348 l 0 617 q 7 625 1 625 m 7 281 l 1105 281 q 1112 273 1112 279 l 1112 7 q 1105 0 1112 0 l 7 0 q 0 7 0 0 l 0 273 q 7 281 1 281 z "},"f":{"ha":1180,"x_min":0,"x_max":1112,"o":"m 7 972 l 1105 972 q 1112 965 1112 971 l 1112 699 q 1105 692 1112 692 l 7 692 q 0 699 0 692 l 0 965 q 7 972 1 972 m 7 625 l 1105 625 q 1112 617 1112 623 l 1112 351 q 1105 344 1112 344 l 358 344 l 358 7 q 351 0 358 0 l 7 0 q 0 7 0 0 l 0 617 q 7 625 1 625 z "},"g":{"ha":1180,"x_min":0,"x_max":1112,"o":"m 246 972 l 340 972 q 347 965 347 971 l 347 7 q 340 0 347 0 l 246 0 q 19 180 82 0 q 0 314 0 242 l 0 659 q 191 968 0 906 q 246 972 228 972 m 422 972 l 1105 972 q 1112 965 1112 971 l 1112 699 q 1105 692 1112 692 l 422 692 q 414 699 414 692 l 414 965 q 422 972 415 972 m 761 486 l 1105 486 q 1112 479 1112 485 l 1112 7 q 1105 0 1112 0 l 422 0 q 414 7 414 0 l 414 273 q 422 281 415 281 l 753 281 l 753 479 q 761 486 755 486 z "},"h":{"ha":1180,"x_min":0,"x_max":1112,"o":"m 7 972 l 351 972 q 358 965 358 971 l 358 7 q 351 0 358 0 l 7 0 q 0 7 0 0 l 0 965 q 7 972 1 972 m 762 972 l 1105 972 q 1112 965 1112 971 l 1112 7 q 1105 0 1112 0 l 762 0 q 754 7 754 0 l 754 965 q 762 972 755 972 m 433 625 l 680 625 q 687 617 687 623 l 687 351 q 680 344 687 344 l 433 344 q 425 351 425 344 l 425 617 q 433 625 427 625 z "},"i":{"ha":434,"x_min":0,"x_max":366,"o":"m 7 972 l 359 972 q 366 965 366 971 l 366 7 q 359 0 366 0 l 7 0 q 0 7 0 0 l 0 965 q 7 972 1 972 z "},"j":{"ha":1180,"x_min":0,"x_max":1112,"o":"m 761 972 l 1105 972 q 1112 965 1112 971 l 1112 314 q 922 4 1112 66 q 865 0 884 0 l 761 0 q 753 7 753 0 l 753 965 q 761 972 755 972 m 7 486 l 340 486 q 347 479 347 485 l 347 7 q 340 0 347 0 l 246 0 q 19 180 82 0 q 0 314 0 242 l 0 479 q 7 486 1 486 m 422 281 l 679 281 q 686 273 686 279 l 686 7 q 679 0 686 0 l 422 0 q 414 7 414 0 l 414 273 q 422 281 415 281 z "},"k":{"ha":1180,"x_min":0,"x_max":1112,"o":"m 7 972 l 352 972 q 359 965 359 971 l 359 7 q 352 0 359 0 l 7 0 q 0 7 0 0 l 0 965 q 7 972 1 972 m 711 972 l 1112 972 l 1112 968 q 742 486 863 649 q 1112 4 863 323 l 1112 0 l 711 0 q 427 348 708 0 l 427 629 q 711 972 699 964 z "},"l":{"ha":1180,"x_min":0,"x_max":1112,"o":"m 7 972 l 351 972 q 358 965 358 971 l 358 7 q 351 0 358 0 l 7 0 q 0 7 0 0 l 0 965 q 7 972 1 972 m 433 281 l 1105 281 q 1112 273 1112 279 l 1112 7 q 1105 0 1112 0 l 433 0 q 425 7 425 0 l 425 273 q 433 281 427 281 z "},"m":{"ha":1180,"x_min":0,"x_max":1112,"o":"m 7 972 l 351 972 q 358 965 358 971 l 358 7 q 351 0 358 0 l 7 0 q 0 7 0 0 l 0 965 q 7 972 1 972 m 761 972 l 1105 972 q 1112 965 1112 971 l 1112 7 q 1105 0 1112 0 l 761 0 q 753 7 753 0 l 753 965 q 761 972 755 972 m 425 879 l 433 879 l 552 718 l 559 718 l 679 879 l 686 879 l 686 434 q 556 258 686 415 q 425 422 536 279 l 425 879 z "},"n":{"ha":1180,"x_min":0,"x_max":1112,"o":"m 7 972 l 351 972 q 358 965 358 971 l 358 7 q 351 0 358 0 l 7 0 q 0 7 0 0 l 0 965 q 7 972 1 972 m 762 972 l 1105 972 q 1112 965 1112 971 l 1112 7 q 1105 0 1112 0 l 762 0 q 754 7 754 0 l 754 965 q 762 972 755 972 m 425 879 l 433 879 l 687 546 l 687 94 l 683 94 q 425 430 425 418 l 425 879 z "},"o":{"ha":1180,"x_min":0,"x_max":1112,"o":"m 246 972 l 340 972 q 347 965 347 971 l 347 7 q 340 0 347 0 l 246 0 q 19 180 82 0 q 0 314 0 242 l 0 659 q 191 968 0 906 q 246 972 228 972 m 422 972 l 690 972 q 698 965 698 971 l 698 699 q 690 692 698 692 l 422 692 q 414 699 414 692 l 414 965 q 422 972 416 972 m 772 972 l 866 972 q 1093 793 1030 972 q 1112 659 1112 730 l 1112 314 q 922 4 1112 66 q 866 0 884 0 l 772 0 q 765 7 765 0 l 765 965 q 772 972 766 972 m 422 281 l 690 281 q 698 273 698 279 l 698 7 q 690 0 698 0 l 422 0 q 414 7 414 0 l 414 273 q 422 281 416 281 z "},"p":{"ha":1180,"x_min":0,"x_max":1112,"o":"m 7 972 l 865 972 q 1093 793 1030 972 q 1112 659 1112 730 q 922 348 1112 410 q 865 344 884 344 l 347 344 l 347 7 q 340 0 347 0 l 7 0 q 0 7 0 0 l 0 617 q 7 625 1 625 l 765 625 l 765 692 l 7 692 q 0 699 0 692 l 0 965 q 7 972 1 972 z "},"q":{"ha":1180,"x_min":0,"x_max":1112,"o":"m 246 972 l 340 972 q 347 965 347 971 l 347 7 q 340 0 347 0 l 246 0 q 19 180 82 0 q 0 314 0 242 l 0 659 q 191 968 0 906 q 246 972 228 972 m 422 972 l 690 972 q 698 965 698 971 l 698 699 q 690 692 698 692 l 422 692 q 414 699 414 692 l 414 965 q 422 972 416 972 m 772 972 l 866 972 q 1093 793 1030 972 q 1112 659 1112 730 l 1112 314 q 922 4 1112 66 q 866 0 884 0 l 772 0 q 765 7 765 0 l 765 965 q 772 972 766 972 m 467 467 l 646 467 q 653 460 653 467 l 653 281 l 690 281 q 698 273 698 279 l 698 7 q 690 0 698 0 l 422 0 q 414 7 414 0 l 414 273 q 422 281 416 281 l 459 281 l 459 460 q 467 467 460 467 z "},"r":{"ha":1180,"x_min":0,"x_max":1112,"o":"m 7 972 l 865 972 q 1093 793 1030 972 q 1112 659 1112 730 q 922 348 1112 410 q 865 344 884 344 l 847 344 l 1108 4 l 1108 0 l 709 0 q 437 344 694 16 l 358 344 l 358 7 q 351 0 358 0 l 7 0 q 0 7 0 0 l 0 617 q 7 625 1 625 l 765 625 l 765 692 l 7 692 q 0 699 0 692 l 0 965 q 7 972 1 972 z "},"s":{"ha":1180,"x_min":0,"x_max":1112,"o":"m 246 972 l 1105 972 q 1112 965 1112 971 l 1112 699 q 1105 692 1112 692 l 7 692 l 0 696 q 246 972 36 972 m 7 625 l 881 625 q 1097 437 1031 625 q 1112 351 1112 355 l 1105 348 l 231 348 q 15 535 80 348 q 0 621 0 617 l 7 625 m 7 281 l 1105 281 l 1112 277 q 866 0 1076 0 l 7 0 q 0 7 0 0 l 0 273 q 7 281 1 281 z "},"t":{"ha":1180,"x_min":0,"x_max":1112,"o":"m 7 972 l 1105 972 q 1112 965 1112 971 l 1112 699 q 1105 692 1112 692 l 7 692 q 0 699 0 692 l 0 965 q 7 972 1 972 m 385 625 l 728 625 q 735 617 735 623 l 735 7 q 728 0 735 0 l 385 0 q 377 7 377 0 l 377 617 q 385 625 378 625 z "},"u":{"ha":1180,"x_min":0,"x_max":1112,"o":"m 7 972 l 340 972 q 347 965 347 971 l 347 7 q 340 0 347 0 l 246 0 q 19 180 82 0 q 0 314 0 242 l 0 965 q 7 972 1 972 m 772 972 l 1105 972 q 1112 965 1112 971 l 1112 314 q 922 4 1112 66 q 866 0 884 0 l 772 0 q 765 7 765 0 l 765 965 q 772 972 766 972 m 422 281 l 690 281 q 698 273 698 279 l 698 7 q 690 0 698 0 l 422 0 q 414 7 414 0 l 414 273 q 422 281 416 281 z "},"v":{"ha":1180,"x_min":0,"x_max":1112,"o":"m 7 972 l 355 972 q 481 666 364 967 q 522 557 522 578 l 522 7 q 515 0 522 0 l 385 0 q 191 486 373 9 l 0 968 l 7 972 m 1105 972 l 1112 968 q 732 0 854 307 l 597 0 q 589 7 589 0 l 589 557 q 754 972 589 574 l 1105 972 z "},"w":{"ha":1180,"x_min":0,"x_max":1112,"o":"m 7 972 l 351 972 q 358 965 358 971 l 358 7 q 351 0 358 0 l 7 0 q 0 7 0 0 l 0 965 q 7 972 1 972 m 762 972 l 1105 972 q 1112 965 1112 971 l 1112 7 q 1105 0 1112 0 l 762 0 q 754 7 754 0 l 754 965 q 762 972 755 972 m 556 714 q 687 538 687 557 l 687 94 l 680 94 l 560 254 l 553 254 l 433 94 l 426 94 l 426 550 q 556 714 536 694 z "},"x":{"ha":1180,"x_min":0,"x_max":1112,"o":"m 0 972 l 352 972 q 521 722 361 968 l 521 251 q 352 0 361 5 l 0 0 l 0 7 q 300 490 300 477 l 0 965 l 0 972 m 757 972 l 1105 972 q 1112 965 1112 971 q 809 490 1088 934 l 809 482 l 1112 4 l 1105 0 l 757 0 q 588 251 748 5 l 588 722 q 757 972 748 968 z "},"y":{"ha":1180,"x_min":0,"x_max":1112,"o":"m 0 972 l 352 972 q 494 760 366 963 l 554 673 q 749 968 559 675 l 756 972 l 1105 972 q 1112 965 1112 971 q 753 397 1080 926 q 734 374 737 374 l 378 374 q 105 800 356 395 l 0 965 l 0 972 m 382 307 l 726 307 q 734 299 734 306 l 734 7 q 726 0 734 0 l 382 0 q 374 7 374 0 l 374 299 q 382 307 376 307 z "},"z":{"ha":1180,"x_min":0,"x_max":1112,"o":"m 7 972 l 1105 972 q 1112 965 1112 971 l 1112 699 q 1105 692 1112 692 l 7 692 q 0 699 0 692 l 0 965 q 7 972 1 972 m 1045 625 l 1045 617 l 612 348 l 64 348 l 64 355 q 496 625 426 584 l 1045 625 m 7 281 l 1105 281 q 1112 273 1112 279 l 1112 7 q 1105 0 1112 0 l 7 0 q 0 7 0 0 l 0 273 q 7 281 1 281 z "},"{":{"ha":688,"x_min":0,"x_max":0,"o":""},"|":{"ha":688,"x_min":0,"x_max":0,"o":""},"}":{"ha":688,"x_min":0,"x_max":0,"o":""},"~":{"ha":688,"x_min":0,"x_max":0,"o":""},"¡":{"ha":456,"x_min":0,"x_max":0,"o":""},"¢":{"ha":772,"x_min":0,"x_max":0,"o":""},"£":{"ha":688,"x_min":0,"x_max":0,"o":""},"¤":{"ha":688,"x_min":0,"x_max":0,"o":""},"¥":{"ha":856,"x_min":0,"x_max":0,"o":""},"¦":{"ha":688,"x_min":0,"x_max":0,"o":""},"§":{"ha":688,"x_min":0,"x_max":0,"o":""},"¨":{"ha":694,"x_min":0,"x_max":0,"o":""},"©":{"ha":1135,"x_min":0,"x_max":0,"o":""},"ª":{"ha":439,"x_min":0,"x_max":0,"o":""},"«":{"ha":640,"x_min":0,"x_max":0,"o":""},"¬":{"ha":688,"x_min":0,"x_max":0,"o":""},"®":{"ha":1135,"x_min":0,"x_max":0,"o":""},"¯":{"ha":454,"x_min":0,"x_max":0,"o":""},"°":{"ha":457,"x_min":0,"x_max":0,"o":""},"±":{"ha":688,"x_min":0,"x_max":0,"o":""},"²":{"ha":688,"x_min":0,"x_max":0,"o":""},"³":{"ha":688,"x_min":0,"x_max":0,"o":""},"´":{"ha":694,"x_min":0,"x_max":0,"o":""},"µ":{"ha":800,"x_min":0,"x_max":0,"o":""},"¶":{"ha":694,"x_min":0,"x_max":0,"o":""},"·":{"ha":345,"x_min":0,"x_max":0,"o":""},"∙":{"ha":345,"x_min":0,"x_max":0,"o":""},"¸":{"ha":694,"x_min":0,"x_max":0,"o":""},"¹":{"ha":688,"x_min":0,"x_max":0,"o":""},"º":{"ha":487,"x_min":0,"x_max":0,"o":""},"»":{"ha":640,"x_min":0,"x_max":0,"o":""},"¼":{"ha":1158,"x_min":0,"x_max":0,"o":""},"½":{"ha":1332,"x_min":0,"x_max":0,"o":""},"¾":{"ha":1158,"x_min":0,"x_max":0,"o":""},"¿":{"ha":507,"x_min":0,"x_max":0,"o":""},"À":{"ha":1044,"x_min":0,"x_max":0,"o":""},"Á":{"ha":1044,"x_min":0,"x_max":0,"o":""},"Â":{"ha":1044,"x_min":0,"x_max":0,"o":""},"Ã":{"ha":1044,"x_min":0,"x_max":0,"o":""},"Ä":{"ha":1044,"x_min":0,"x_max":0,"o":""},"Å":{"ha":1044,"x_min":0,"x_max":0,"o":""},"Æ":{"ha":1436,"x_min":0,"x_max":0,"o":""},"Ç":{"ha":949,"x_min":0,"x_max":0,"o":""},"È":{"ha":781,"x_min":0,"x_max":0,"o":""},"É":{"ha":781,"x_min":0,"x_max":0,"o":""},"Ê":{"ha":781,"x_min":0,"x_max":0,"o":""},"Ë":{"ha":781,"x_min":0,"x_max":0,"o":""},"Ì":{"ha":446,"x_min":0,"x_max":0,"o":""},"Í":{"ha":446,"x_min":0,"x_max":0,"o":""},"Î":{"ha":446,"x_min":0,"x_max":0,"o":""},"Ï":{"ha":446,"x_min":0,"x_max":0,"o":""},"Ð":{"ha":1029,"x_min":0,"x_max":0,"o":""},"Ñ":{"ha":1054,"x_min":0,"x_max":0,"o":""},"Ò":{"ha":1095,"x_min":0,"x_max":0,"o":""},"Ó":{"ha":1095,"x_min":0,"x_max":0,"o":""},"Ô":{"ha":1095,"x_min":0,"x_max":0,"o":""},"Õ":{"ha":1095,"x_min":0,"x_max":0,"o":""},"Ö":{"ha":1095,"x_min":0,"x_max":0,"o":""},"×":{"ha":688,"x_min":0,"x_max":0,"o":""},"Ø":{"ha":1095,"x_min":0,"x_max":0,"o":""},"Ù":{"ha":1018,"x_min":0,"x_max":0,"o":""},"Ú":{"ha":1018,"x_min":0,"x_max":0,"o":""},"Û":{"ha":1018,"x_min":0,"x_max":0,"o":""},"Ü":{"ha":1018,"x_min":0,"x_max":0,"o":""},"Ý":{"ha":836,"x_min":0,"x_max":0,"o":""},"Þ":{"ha":760,"x_min":0,"x_max":0,"o":""},"ß":{"ha":848,"x_min":0,"x_max":0,"o":""},"à":{"ha":625,"x_min":0,"x_max":0,"o":""},"á":{"ha":625,"x_min":0,"x_max":0,"o":""},"â":{"ha":625,"x_min":0,"x_max":0,"o":""},"ã":{"ha":625,"x_min":0,"x_max":0,"o":""},"ä":{"ha":625,"x_min":0,"x_max":0,"o":""},"å":{"ha":625,"x_min":0,"x_max":0,"o":""},"æ":{"ha":986,"x_min":0,"x_max":0,"o":""},"ç":{"ha":614,"x_min":0,"x_max":0,"o":""},"è":{"ha":616,"x_min":0,"x_max":0,"o":""},"é":{"ha":616,"x_min":0,"x_max":0,"o":""},"ê":{"ha":616,"x_min":0,"x_max":0,"o":""},"ë":{"ha":616,"x_min":0,"x_max":0,"o":""},"ì":{"ha":349,"x_min":0,"x_max":0,"o":""},"í":{"ha":349,"x_min":0,"x_max":0,"o":""},"î":{"ha":349,"x_min":0,"x_max":0,"o":""},"ï":{"ha":349,"x_min":0,"x_max":0,"o":""},"ð":{"ha":772,"x_min":0,"x_max":0,"o":""},"ñ":{"ha":751,"x_min":0,"x_max":0,"o":""},"ò":{"ha":685,"x_min":0,"x_max":0,"o":""},"ó":{"ha":685,"x_min":0,"x_max":0,"o":""},"ô":{"ha":685,"x_min":0,"x_max":0,"o":""},"õ":{"ha":685,"x_min":0,"x_max":0,"o":""},"ö":{"ha":685,"x_min":0,"x_max":0,"o":""},"÷":{"ha":688,"x_min":0,"x_max":0,"o":""},"ø":{"ha":685,"x_min":0,"x_max":0,"o":""},"ù":{"ha":718,"x_min":0,"x_max":0,"o":""},"ú":{"ha":718,"x_min":0,"x_max":0,"o":""},"û":{"ha":718,"x_min":0,"x_max":0,"o":""},"ü":{"ha":718,"x_min":0,"x_max":0,"o":""},"ý":{"ha":589,"x_min":0,"x_max":0,"o":""},"þ":{"ha":685,"x_min":0,"x_max":0,"o":""},"ÿ":{"ha":589,"x_min":0,"x_max":0,"o":""},"ı":{"ha":349,"x_min":0,"x_max":0,"o":""},"ˆ":{"ha":694,"x_min":0,"x_max":0,"o":""},"ˇ":{"ha":694,"x_min":0,"x_max":0,"o":""},"ˉ":{"ha":694,"x_min":0,"x_max":0,"o":""},"˘":{"ha":694,"x_min":0,"x_max":0,"o":""},"˙":{"ha":694,"x_min":0,"x_max":0,"o":""},"˚":{"ha":694,"x_min":0,"x_max":0,"o":""},"˛":{"ha":694,"x_min":0,"x_max":0,"o":""},"˜":{"ha":694,"x_min":0,"x_max":0,"o":""},"˝":{"ha":694,"x_min":0,"x_max":0,"o":""},"–":{"ha":751,"x_min":0,"x_max":0,"o":""},"—":{"ha":1389,"x_min":0,"x_max":0,"o":""},"‘":{"ha":378,"x_min":0,"x_max":0,"o":""},"’":{"ha":378,"x_min":0,"x_max":0,"o":""},"‚":{"ha":378,"x_min":0,"x_max":0,"o":""},"“":{"ha":617,"x_min":0,"x_max":0,"o":""},"”":{"ha":617,"x_min":0,"x_max":0,"o":""},"„":{"ha":617,"x_min":0,"x_max":0,"o":""},"†":{"ha":688,"x_min":0,"x_max":0,"o":""},"‡":{"ha":688,"x_min":0,"x_max":0,"o":""},"•":{"ha":694,"x_min":0,"x_max":0,"o":""},"…":{"ha":1389,"x_min":0,"x_max":0,"o":""},"‹":{"ha":428,"x_min":0,"x_max":0,"o":""},"›":{"ha":428,"x_min":0,"x_max":0,"o":""},"⁄":{"ha":232,"x_min":0,"x_max":0,"o":""},"∕":{"ha":232,"x_min":0,"x_max":0,"o":""},"₣":{"ha":688,"x_min":0,"x_max":0,"o":""},"₤":{"ha":688,"x_min":0,"x_max":0,"o":""},"₧":{"ha":1375,"x_min":0,"x_max":0,"o":""},"€":{"ha":688,"x_min":0,"x_max":0,"o":""},"№":{"ha":1540,"x_min":0,"x_max":0,"o":""},"™":{"ha":1015,"x_min":0,"x_max":0,"o":""},"∂":{"ha":688,"x_min":0,"x_max":0,"o":""},"∆":{"ha":733,"x_min":0,"x_max":0,"o":""},"∏":{"ha":1027,"x_min":0,"x_max":0,"o":""},"∑":{"ha":818,"x_min":0,"x_max":0,"o":""},"−":{"ha":688,"x_min":0,"x_max":0,"o":""},"√":{"ha":688,"x_min":0,"x_max":0,"o":""},"∞":{"ha":688,"x_min":0,"x_max":0,"o":""},"∫":{"ha":451,"x_min":0,"x_max":0,"o":""},"≈":{"ha":688,"x_min":0,"x_max":0,"o":""},"≤":{"ha":688,"x_min":0,"x_max":0,"o":""},"≥":{"ha":688,"x_min":0,"x_max":0,"o":""},"":{"ha":728,"x_min":0,"x_max":0,"o":""},"ﬁ":{"ha":728,"x_min":0,"x_max":0,"o":""},"":{"ha":733,"x_min":0,"x_max":0,"o":""},"ﬂ":{"ha":733,"x_min":0,"x_max":0,"o":""}}}
